<svg width="597" height="434" viewBox="0 0 597 434" fill="none" xmlns="http://www.w3.org/2000/svg">
<g clip-path="url(#clip0_3975_5)">
<path d="M347.591 76.5091C358.774 76.5091 367.841 67.4429 367.841 56.2592C367.841 45.0756 358.774 36.0094 347.591 36.0094C336.407 36.0094 327.341 45.0756 327.341 56.2592C327.341 67.4429 336.407 76.5091 347.591 76.5091Z" fill="#F2F2F2"/>
<path d="M504.675 377.04C534.774 354.114 549.15 315.59 540.15 278.84C539.927 277.927 539.691 277.016 539.442 276.107C533.475 254.293 518.714 233.561 497.199 226.59C479.134 220.738 459.416 225.238 440.57 222.911C403.574 218.342 374.892 188.408 354.711 157.067C334.529 125.726 319.019 90.6441 292.202 64.7517C247.999 22.0725 175.893 12.8837 121.087 40.6646C66.2816 68.4457 31.3711 130.08 32.8599 191.507C34.3488 252.933 70.815 311.661 123.773 342.82C143.228 354.267 165.729 362.376 188.122 359.538C207.552 357.076 225.207 346.636 244.546 343.536C274.951 338.663 305.162 352.41 331.46 368.43C357.758 384.449 383.161 403.438 413.045 410.864C442.062 418.075 478.012 397.348 504.675 377.04Z" fill="#D1D1D1"/>
<path d="M461.43 41.9547C460.77 41.5148 460.103 41.0977 459.443 40.673C440.37 28.4747 419.927 18.5649 398.536 11.1485L393.576 79.5713H362.133V1.16035C360.153 0.750815 358.159 0.364032 356.164 0V79.5713H318.798C298.227 79.5713 278.499 71.3997 263.953 56.8541C249.408 42.3085 241.236 22.5804 241.236 2.00985C239.234 2.44213 237.247 2.90469 235.26 3.39765V79.5713H204.825L200.101 14.3262C178.118 22.7568 157.249 33.8434 137.957 47.3393C137.624 47.5668 137.29 47.8019 136.964 48.0295C135.288 49.205 133.634 50.4033 131.989 51.6167V312.65H221.685L220.1 290.695L211.378 170.147H387.016L378.294 290.695L376.709 312.65H465.412V44.5939C464.092 43.699 462.765 42.8193 461.43 41.9547ZM235.26 150.239H209.937L205.258 85.5475H235.26V150.239ZM356.164 150.239H313.633V148.957C313.633 148.341 313.512 147.731 313.276 147.162C313.04 146.593 312.694 146.076 312.258 145.64C311.822 145.205 311.304 144.86 310.735 144.625C310.165 144.39 309.555 144.269 308.939 144.27H290.449C289.833 144.27 289.224 144.391 288.655 144.627C288.086 144.862 287.569 145.207 287.134 145.643C286.699 146.078 286.354 146.595 286.118 147.163C285.883 147.732 285.762 148.342 285.762 148.957V150.239H241.236V85.5475H356.164V150.239ZM362.133 150.239V85.5475H393.144L388.464 150.239H362.133Z" fill="#551009"/>
<path d="M0 329.366C6.58841 337.173 13.7145 344.509 21.3262 351.322L575.398 352.08C583.009 345.267 590.135 337.931 596.724 330.124L0 329.366Z" fill="#242528"/>
<path d="M375.734 259.063V324.061C375.735 324.889 376.064 325.683 376.65 326.269C377.235 326.855 378.029 327.184 378.858 327.184H475.178C476.006 327.184 476.8 326.855 477.386 326.269C477.972 325.683 478.301 324.889 478.302 324.061V259.063C478.3 258.235 477.97 257.442 477.384 256.857C476.799 256.272 476.005 255.943 475.178 255.942H378.858C378.03 255.943 377.237 256.272 376.651 256.857C376.066 257.442 375.736 258.235 375.734 259.063Z" fill="#3F3D56"/>
<path d="M377.993 259.871V323.259C377.994 323.701 378.17 324.125 378.483 324.438C378.796 324.751 379.22 324.927 379.663 324.928H474.376C474.819 324.927 475.243 324.751 475.556 324.438C475.869 324.125 476.045 323.701 476.046 323.259V259.871C476.046 259.428 475.87 259.003 475.557 258.69C475.244 258.376 474.819 258.199 474.376 258.198H379.663C379.22 258.199 378.795 258.376 378.482 258.69C378.169 259.003 377.993 259.428 377.993 259.871Z" fill="#242528"/>
<path d="M373.719 336.737C373.896 336.958 374.12 337.137 374.375 337.259C374.631 337.381 374.91 337.444 375.193 337.442H478.33C478.612 337.442 478.89 337.379 479.145 337.257C479.399 337.136 479.623 336.959 479.801 336.74C479.979 336.521 480.105 336.265 480.172 335.991C480.238 335.717 480.242 335.431 480.185 335.155L478.584 327.55C478.517 327.24 478.374 326.952 478.168 326.711C477.962 326.47 477.698 326.285 477.402 326.172C477.187 326.088 476.959 326.044 476.728 326.045H376.788C376.557 326.044 376.329 326.088 376.114 326.172C375.818 326.285 375.555 326.47 375.348 326.711C375.142 326.952 374.999 327.24 374.933 327.55L373.332 335.155C373.275 335.431 373.28 335.716 373.347 335.99C373.414 336.263 373.541 336.519 373.719 336.737Z" fill="#242528"/>
<path d="M473.19 329.32H475.626C475.83 329.32 475.996 329.154 475.996 328.95V327.784C475.996 327.58 475.83 327.414 475.626 327.414H473.19C472.985 327.414 472.82 327.58 472.82 327.784V328.95C472.82 329.154 472.985 329.32 473.19 329.32Z" fill="#3F3D56"/>
<path d="M466.837 329.32H469.273C469.477 329.32 469.643 329.154 469.643 328.95V327.784C469.643 327.58 469.477 327.414 469.273 327.414H466.837C466.632 327.414 466.467 327.58 466.467 327.784V328.95C466.467 329.154 466.632 329.32 466.837 329.32Z" fill="#3F3D56"/>
<path d="M460.484 329.32H462.92C463.124 329.32 463.29 329.154 463.29 328.95V327.784C463.29 327.58 463.124 327.414 462.92 327.414H460.484C460.279 327.414 460.113 327.58 460.113 327.784V328.95C460.113 329.154 460.279 329.32 460.484 329.32Z" fill="#3F3D56"/>
<path d="M454.13 329.32H456.567C456.771 329.32 456.937 329.154 456.937 328.95V327.784C456.937 327.58 456.771 327.414 456.567 327.414H454.13C453.926 327.414 453.76 327.58 453.76 327.784V328.95C453.76 329.154 453.926 329.32 454.13 329.32Z" fill="#3F3D56"/>
<path d="M447.777 329.32H450.213C450.418 329.32 450.583 329.154 450.583 328.95V327.784C450.583 327.58 450.418 327.414 450.213 327.414H447.777C447.573 327.414 447.407 327.58 447.407 327.784V328.95C447.407 329.154 447.573 329.32 447.777 329.32Z" fill="#3F3D56"/>
<path d="M441.424 329.32H443.86C444.065 329.32 444.23 329.154 444.23 328.95V327.784C444.23 327.58 444.065 327.414 443.86 327.414H441.424C441.22 327.414 441.054 327.58 441.054 327.784V328.95C441.054 329.154 441.22 329.32 441.424 329.32Z" fill="#3F3D56"/>
<path d="M435.071 329.32H437.507C437.712 329.32 437.877 329.154 437.877 328.95V327.784C437.877 327.58 437.712 327.414 437.507 327.414H435.071C434.867 327.414 434.701 327.58 434.701 327.784V328.95C434.701 329.154 434.867 329.32 435.071 329.32Z" fill="#3F3D56"/>
<path d="M428.718 329.32H431.154C431.359 329.32 431.524 329.154 431.524 328.95V327.784C431.524 327.58 431.359 327.414 431.154 327.414H428.718C428.514 327.414 428.348 327.58 428.348 327.784V328.95C428.348 329.154 428.514 329.32 428.718 329.32Z" fill="#3F3D56"/>
<path d="M422.365 329.32H424.801C425.005 329.32 425.171 329.154 425.171 328.95V327.784C425.171 327.58 425.005 327.414 424.801 327.414H422.365C422.16 327.414 421.995 327.58 421.995 327.784V328.95C421.995 329.154 422.16 329.32 422.365 329.32Z" fill="#3F3D56"/>
<path d="M416.012 329.32H418.448C418.652 329.32 418.818 329.154 418.818 328.95V327.784C418.818 327.58 418.652 327.414 418.448 327.414H416.012C415.807 327.414 415.642 327.58 415.642 327.784V328.95C415.642 329.154 415.807 329.32 416.012 329.32Z" fill="#3F3D56"/>
<path d="M409.659 329.32H412.095C412.299 329.32 412.465 329.154 412.465 328.95V327.784C412.465 327.58 412.299 327.414 412.095 327.414H409.659C409.454 327.414 409.288 327.58 409.288 327.784V328.95C409.288 329.154 409.454 329.32 409.659 329.32Z" fill="#3F3D56"/>
<path d="M403.306 329.32H405.742C405.946 329.32 406.112 329.154 406.112 328.95V327.784C406.112 327.58 405.946 327.414 405.742 327.414H403.306C403.101 327.414 402.935 327.58 402.935 327.784V328.95C402.935 329.154 403.101 329.32 403.306 329.32Z" fill="#3F3D56"/>
<path d="M396.952 329.32H399.389C399.593 329.32 399.759 329.154 399.759 328.95V327.784C399.759 327.58 399.593 327.414 399.389 327.414H396.952C396.748 327.414 396.582 327.58 396.582 327.784V328.95C396.582 329.154 396.748 329.32 396.952 329.32Z" fill="#3F3D56"/>
<path d="M390.599 329.32H393.035C393.24 329.32 393.406 329.154 393.406 328.95V327.784C393.406 327.58 393.24 327.414 393.035 327.414H390.599C390.395 327.414 390.229 327.58 390.229 327.784V328.95C390.229 329.154 390.395 329.32 390.599 329.32Z" fill="#3F3D56"/>
<path d="M384.246 329.32H386.682C386.887 329.32 387.053 329.154 387.053 328.95V327.784C387.053 327.58 386.887 327.414 386.682 327.414H384.246C384.042 327.414 383.876 327.58 383.876 327.784V328.95C383.876 329.154 384.042 329.32 384.246 329.32Z" fill="#3F3D56"/>
<path d="M377.893 329.32H380.329C380.534 329.32 380.699 329.154 380.699 328.95V327.784C380.699 327.58 380.534 327.414 380.329 327.414H377.893C377.689 327.414 377.523 327.58 377.523 327.784V328.95C377.523 329.154 377.689 329.32 377.893 329.32Z" fill="#3F3D56"/>
<path d="M473.265 332.497H475.701C475.905 332.497 476.071 332.331 476.071 332.126V330.961C476.071 330.757 475.905 330.591 475.701 330.591H473.265C473.06 330.591 472.894 330.757 472.894 330.961V332.126C472.894 332.331 473.06 332.497 473.265 332.497Z" fill="#3F3D56"/>
<path d="M466.912 332.497H469.348C469.552 332.497 469.718 332.331 469.718 332.126V330.961C469.718 330.757 469.552 330.591 469.348 330.591H466.912C466.707 330.591 466.541 330.757 466.541 330.961V332.126C466.541 332.331 466.707 332.497 466.912 332.497Z" fill="#3F3D56"/>
<path d="M460.558 332.497H462.994C463.199 332.497 463.365 332.331 463.365 332.126V330.961C463.365 330.757 463.199 330.591 462.994 330.591H460.558C460.354 330.591 460.188 330.757 460.188 330.961V332.126C460.188 332.331 460.354 332.497 460.558 332.497Z" fill="#3F3D56"/>
<path d="M454.205 332.497H456.641C456.846 332.497 457.012 332.331 457.012 332.126V330.961C457.012 330.757 456.846 330.591 456.641 330.591H454.205C454.001 330.591 453.835 330.757 453.835 330.961V332.126C453.835 332.331 454.001 332.497 454.205 332.497Z" fill="#3F3D56"/>
<path d="M447.852 332.497H450.288C450.493 332.497 450.659 332.331 450.659 332.126V330.961C450.659 330.757 450.493 330.591 450.288 330.591H447.852C447.648 330.591 447.482 330.757 447.482 330.961V332.126C447.482 332.331 447.648 332.497 447.852 332.497Z" fill="#3F3D56"/>
<path d="M441.499 332.497H443.935C444.14 332.497 444.306 332.331 444.306 332.126V330.961C444.306 330.757 444.14 330.591 443.935 330.591H441.499C441.295 330.591 441.129 330.757 441.129 330.961V332.126C441.129 332.331 441.295 332.497 441.499 332.497Z" fill="#3F3D56"/>
<path d="M435.146 332.497H437.582C437.787 332.497 437.952 332.331 437.952 332.126V330.961C437.952 330.757 437.787 330.591 437.582 330.591H435.146C434.942 330.591 434.776 330.757 434.776 330.961V332.126C434.776 332.331 434.942 332.497 435.146 332.497Z" fill="#3F3D56"/>
<path d="M428.793 332.497H431.229C431.434 332.497 431.599 332.331 431.599 332.126V330.961C431.599 330.757 431.434 330.591 431.229 330.591H428.793C428.589 330.591 428.423 330.757 428.423 330.961V332.126C428.423 332.331 428.589 332.497 428.793 332.497Z" fill="#3F3D56"/>
<path d="M422.44 332.497H424.876C425.081 332.497 425.246 332.331 425.246 332.126V330.961C425.246 330.757 425.081 330.591 424.876 330.591H422.44C422.236 330.591 422.07 330.757 422.07 330.961V332.126C422.07 332.331 422.236 332.497 422.44 332.497Z" fill="#3F3D56"/>
<path d="M416.087 332.497H418.523C418.727 332.497 418.893 332.331 418.893 332.126V330.961C418.893 330.757 418.727 330.591 418.523 330.591H416.087C415.882 330.591 415.717 330.757 415.717 330.961V332.126C415.717 332.331 415.882 332.497 416.087 332.497Z" fill="#3F3D56"/>
<path d="M409.734 332.497H412.17C412.374 332.497 412.54 332.331 412.54 332.126V330.961C412.54 330.757 412.374 330.591 412.17 330.591H409.734C409.529 330.591 409.364 330.757 409.364 330.961V332.126C409.364 332.331 409.529 332.497 409.734 332.497Z" fill="#3F3D56"/>
<path d="M403.381 332.497H405.817C406.021 332.497 406.187 332.331 406.187 332.126V330.961C406.187 330.757 406.021 330.591 405.817 330.591H403.381C403.176 330.591 403.01 330.757 403.01 330.961V332.126C403.01 332.331 403.176 332.497 403.381 332.497Z" fill="#3F3D56"/>
<path d="M397.028 332.497H399.464C399.668 332.497 399.834 332.331 399.834 332.126V330.961C399.834 330.757 399.668 330.591 399.464 330.591H397.028C396.823 330.591 396.657 330.757 396.657 330.961V332.126C396.657 332.331 396.823 332.497 397.028 332.497Z" fill="#3F3D56"/>
<path d="M390.675 332.497H393.111C393.315 332.497 393.481 332.331 393.481 332.126V330.961C393.481 330.757 393.315 330.591 393.111 330.591H390.675C390.47 330.591 390.304 330.757 390.304 330.961V332.126C390.304 332.331 390.47 332.497 390.675 332.497Z" fill="#3F3D56"/>
<path d="M384.321 332.497H386.757C386.962 332.497 387.128 332.331 387.128 332.126V330.961C387.128 330.757 386.962 330.591 386.757 330.591H384.321C384.117 330.591 383.951 330.757 383.951 330.961V332.126C383.951 332.331 384.117 332.497 384.321 332.497Z" fill="#3F3D56"/>
<path d="M377.968 332.497H380.404C380.609 332.497 380.775 332.331 380.775 332.126V330.961C380.775 330.757 380.609 330.591 380.404 330.591H377.968C377.764 330.591 377.598 330.757 377.598 330.961V332.126C377.598 332.331 377.764 332.497 377.968 332.497Z" fill="#3F3D56"/>
<path d="M420.534 336.309H445.206C445.41 336.309 445.576 336.143 445.576 335.938V334.773C445.576 334.568 445.41 334.403 445.206 334.403H420.534C420.33 334.403 420.164 334.568 420.164 334.773V335.938C420.164 336.143 420.33 336.309 420.534 336.309Z" fill="#3F3D56"/>
<path d="M394.395 272.066H392.238C391.585 272.066 391.054 272.596 391.054 273.25C391.054 273.904 391.585 274.434 392.238 274.434H394.395C395.049 274.434 395.579 273.904 395.579 273.25C395.579 272.596 395.049 272.066 394.395 272.066Z" fill="white"/>
<path d="M419.06 272.066H416.904C416.25 272.066 415.72 272.596 415.72 273.25C415.72 273.904 416.25 274.434 416.904 274.434H419.06C419.714 274.434 420.244 273.904 420.244 273.25C420.244 272.596 419.714 272.066 419.06 272.066Z" fill="white"/>
<path d="M426.049 272.066H423.892C423.238 272.066 422.708 272.596 422.708 273.25C422.708 273.904 423.238 274.434 423.892 274.434H426.049C426.703 274.434 427.233 273.904 427.233 273.25C427.233 272.596 426.703 272.066 426.049 272.066Z" fill="white"/>
<path d="M412.351 271.869H398.947C398.294 271.869 397.763 272.399 397.763 273.053C397.763 273.706 398.294 274.236 398.947 274.236H412.351C413.005 274.236 413.535 273.706 413.535 273.053C413.535 272.399 413.005 271.869 412.351 271.869Z" fill="white"/>
<path d="M445.238 271.869H431.835C431.181 271.869 430.651 272.399 430.651 273.053C430.651 273.706 431.181 274.236 431.835 274.236H445.238C445.892 274.236 446.422 273.706 446.422 273.053C446.422 272.399 445.892 271.869 445.238 271.869Z" fill="white"/>
<path d="M400.972 277.41H398.816C398.162 277.41 397.632 277.94 397.632 278.594C397.632 279.248 398.162 279.778 398.816 279.778H400.972C401.626 279.778 402.156 279.248 402.156 278.594C402.156 277.94 401.626 277.41 400.972 277.41Z" fill="white"/>
<path d="M425.638 277.41H423.481C422.827 277.41 422.297 277.94 422.297 278.594C422.297 279.248 422.827 279.778 423.481 279.778H425.638C426.292 279.778 426.822 279.248 426.822 278.594C426.822 277.94 426.292 277.41 425.638 277.41Z" fill="white"/>
<path d="M432.626 277.41H430.47C429.816 277.41 429.286 277.94 429.286 278.594C429.286 279.248 429.816 279.778 430.47 279.778H432.626C433.28 279.778 433.81 279.248 433.81 278.594C433.81 277.94 433.28 277.41 432.626 277.41Z" fill="white"/>
<path d="M418.929 277.213H405.525C404.871 277.213 404.341 277.743 404.341 278.397C404.341 279.051 404.871 279.581 405.525 279.581H418.929C419.583 279.581 420.113 279.051 420.113 278.397C420.113 277.743 419.583 277.213 418.929 277.213Z" fill="white"/>
<path d="M451.816 277.213H438.412C437.758 277.213 437.228 277.743 437.228 278.397C437.228 279.051 437.758 279.581 438.412 279.581H451.816C452.47 279.581 453 279.051 453 278.397C453 277.743 452.47 277.213 451.816 277.213Z" fill="white"/>
<path d="M407.55 282.754H405.393C404.739 282.754 404.209 283.284 404.209 283.938C404.209 284.592 404.739 285.122 405.393 285.122H407.55C408.204 285.122 408.734 284.592 408.734 283.938C408.734 283.284 408.204 282.754 407.55 282.754Z" fill="white"/>
<path d="M432.215 282.754H430.059C429.405 282.754 428.875 283.284 428.875 283.938C428.875 284.592 429.405 285.122 430.059 285.122H432.215C432.869 285.122 433.399 284.592 433.399 283.938C433.399 283.284 432.869 282.754 432.215 282.754Z" fill="white"/>
<path d="M439.204 282.754H437.047C436.393 282.754 435.863 283.284 435.863 283.938C435.863 284.592 436.393 285.122 437.047 285.122H439.204C439.858 285.122 440.388 284.592 440.388 283.938C440.388 283.284 439.858 282.754 439.204 282.754Z" fill="white"/>
<path d="M425.506 282.557H412.102C411.448 282.557 410.918 283.087 410.918 283.741C410.918 284.395 411.448 284.925 412.102 284.925H425.506C426.16 284.925 426.69 284.395 426.69 283.741C426.69 283.087 426.16 282.557 425.506 282.557Z" fill="white"/>
<path d="M458.394 282.557H444.99C444.336 282.557 443.806 283.087 443.806 283.741C443.806 284.395 444.336 284.925 444.99 284.925H458.394C459.047 284.925 459.577 284.395 459.577 283.741C459.577 283.087 459.047 282.557 458.394 282.557Z" fill="white"/>
<path d="M414.127 288.099H411.971C411.317 288.099 410.787 288.629 410.787 289.283C410.787 289.936 411.317 290.466 411.971 290.466H414.127C414.781 290.466 415.311 289.936 415.311 289.283C415.311 288.629 414.781 288.099 414.127 288.099Z" fill="white"/>
<path d="M438.793 288.099H436.636C435.982 288.099 435.452 288.629 435.452 289.283C435.452 289.936 435.982 290.466 436.636 290.466H438.793C439.447 290.466 439.977 289.936 439.977 289.283C439.977 288.629 439.447 288.099 438.793 288.099Z" fill="white"/>
<path d="M445.781 288.099H443.625C442.971 288.099 442.441 288.629 442.441 289.283C442.441 289.936 442.971 290.466 443.625 290.466H445.781C446.435 290.466 446.965 289.936 446.965 289.283C446.965 288.629 446.435 288.099 445.781 288.099Z" fill="white"/>
<path d="M432.084 287.901H418.68C418.026 287.901 417.496 288.431 417.496 289.085C417.496 289.739 418.026 290.269 418.68 290.269H432.084C432.738 290.269 433.268 289.739 433.268 289.085C433.268 288.431 432.738 287.901 432.084 287.901Z" fill="white"/>
<path d="M419.06 309.349H416.904C416.25 309.349 415.72 309.879 415.72 310.533C415.72 311.187 416.25 311.717 416.904 311.717H419.06C419.714 311.717 420.244 311.187 420.244 310.533C420.244 309.879 419.714 309.349 419.06 309.349Z" fill="white"/>
<path d="M426.049 309.349H423.892C423.238 309.349 422.708 309.879 422.708 310.533C422.708 311.187 423.238 311.717 423.892 311.717H426.049C426.703 311.717 427.233 311.187 427.233 310.533C427.233 309.879 426.703 309.349 426.049 309.349Z" fill="white"/>
<path d="M445.238 309.547H431.835C431.181 309.547 430.651 310.077 430.651 310.731C430.651 311.384 431.181 311.914 431.835 311.914H445.238C445.892 311.914 446.422 311.384 446.422 310.731C446.422 310.077 445.892 309.547 445.238 309.547Z" fill="white"/>
<path d="M394.395 309.349H392.238C391.585 309.349 391.054 309.879 391.054 310.533C391.054 311.187 391.585 311.717 392.238 311.717H394.395C395.049 311.717 395.579 311.187 395.579 310.533C395.579 309.879 395.049 309.349 394.395 309.349Z" fill="white"/>
<path d="M412.351 309.547H398.947C398.294 309.547 397.763 310.077 397.763 310.731C397.763 311.384 398.294 311.914 398.947 311.914H412.351C413.005 311.914 413.535 311.384 413.535 310.731C413.535 310.077 413.005 309.547 412.351 309.547Z" fill="white"/>
<path d="M400.972 304.005H398.816C398.162 304.005 397.632 304.535 397.632 305.189C397.632 305.843 398.162 306.373 398.816 306.373H400.972C401.626 306.373 402.156 305.843 402.156 305.189C402.156 304.535 401.626 304.005 400.972 304.005Z" fill="white"/>
<path d="M425.638 304.005H423.481C422.827 304.005 422.297 304.535 422.297 305.189C422.297 305.843 422.827 306.373 423.481 306.373H425.638C426.292 306.373 426.822 305.843 426.822 305.189C426.822 304.535 426.292 304.005 425.638 304.005Z" fill="white"/>
<path d="M432.626 304.005H430.47C429.816 304.005 429.286 304.535 429.286 305.189C429.286 305.843 429.816 306.373 430.47 306.373H432.626C433.28 306.373 433.81 305.843 433.81 305.189C433.81 304.535 433.28 304.005 432.626 304.005Z" fill="white"/>
<path d="M418.929 304.202H405.525C404.871 304.202 404.341 304.732 404.341 305.386C404.341 306.04 404.871 306.57 405.525 306.57H418.929C419.583 306.57 420.113 306.04 420.113 305.386C420.113 304.732 419.583 304.202 418.929 304.202Z" fill="white"/>
<path d="M407.55 298.661H405.393C404.739 298.661 404.209 299.191 404.209 299.845C404.209 300.499 404.739 301.029 405.393 301.029H407.55C408.204 301.029 408.734 300.499 408.734 299.845C408.734 299.191 408.204 298.661 407.55 298.661Z" fill="white"/>
<path d="M432.215 298.661H430.059C429.405 298.661 428.875 299.191 428.875 299.845C428.875 300.499 429.405 301.029 430.059 301.029H432.215C432.869 301.029 433.399 300.499 433.399 299.845C433.399 299.191 432.869 298.661 432.215 298.661Z" fill="white"/>
<path d="M439.204 298.661H437.047C436.393 298.661 435.863 299.191 435.863 299.845C435.863 300.499 436.393 301.029 437.047 301.029H439.204C439.858 301.029 440.388 300.499 440.388 299.845C440.388 299.191 439.858 298.661 439.204 298.661Z" fill="white"/>
<path d="M425.506 298.858H412.102C411.448 298.858 410.918 299.388 410.918 300.042C410.918 300.696 411.448 301.226 412.102 301.226H425.506C426.16 301.226 426.69 300.696 426.69 300.042C426.69 299.388 426.16 298.858 425.506 298.858Z" fill="white"/>
<path d="M414.127 293.317H411.971C411.317 293.317 410.787 293.847 410.787 294.501C410.787 295.155 411.317 295.685 411.971 295.685H414.127C414.781 295.685 415.311 295.155 415.311 294.501C415.311 293.847 414.781 293.317 414.127 293.317Z" fill="white"/>
<path d="M438.793 293.317H436.636C435.982 293.317 435.452 293.847 435.452 294.501C435.452 295.155 435.982 295.685 436.636 295.685H438.793C439.447 295.685 439.977 295.155 439.977 294.501C439.977 293.847 439.447 293.317 438.793 293.317Z" fill="white"/>
<path d="M445.781 293.317H443.625C442.971 293.317 442.441 293.847 442.441 294.501C442.441 295.155 442.971 295.685 443.625 295.685H445.781C446.435 295.685 446.965 295.155 446.965 294.501C446.965 293.847 446.435 293.317 445.781 293.317Z" fill="white"/>
<path d="M432.084 293.514H418.68C418.026 293.514 417.496 294.044 417.496 294.698C417.496 295.352 418.026 295.882 418.68 295.882H432.084C432.738 295.882 433.268 295.352 433.268 294.698C433.268 294.044 432.738 293.514 432.084 293.514Z" fill="white"/>
<path d="M382.929 371.981L372.805 355.977L404.583 330.645L417.7 316.113C419.404 314.225 421.574 312.817 423.992 312.031C426.411 311.244 428.994 311.106 431.482 311.63C433.971 312.154 436.279 313.322 438.174 315.018C440.07 316.713 441.488 318.876 442.286 321.291C443.468 324.87 443.214 328.768 441.577 332.163C439.939 335.557 437.047 338.183 433.511 339.486L412.77 347.127L382.929 371.981Z" fill="#FFB6B6"/>
<path d="M145.378 255.945V333.727H199.869V255.945C199.87 255.386 199.691 254.841 199.359 254.39C199.028 253.94 198.56 253.608 198.026 253.443C197.774 253.359 197.51 253.318 197.245 253.321H148.009C147.664 253.321 147.322 253.388 147.003 253.519C146.684 253.651 146.394 253.844 146.15 254.088C145.905 254.332 145.711 254.621 145.579 254.94C145.446 255.258 145.378 255.6 145.378 255.945ZM166.643 282.671C166.657 281.138 167.276 279.672 168.366 278.593C169.455 277.514 170.927 276.908 172.46 276.908C173.993 276.908 175.465 277.514 176.554 278.593C177.644 279.672 178.263 281.138 178.277 282.671V291.696C178.269 293.234 177.653 294.706 176.563 295.79C175.473 296.875 173.998 297.483 172.46 297.483C170.922 297.483 169.447 296.875 168.357 295.79C167.267 294.706 166.651 293.234 166.643 291.696V282.671Z" fill="#242528"/>
<path d="M145.211 331.239V338.74C145.212 339.128 145.366 339.501 145.64 339.776C145.914 340.052 146.286 340.208 146.675 340.211H198.572C198.961 340.209 199.333 340.053 199.607 339.778C199.882 339.502 200.036 339.129 200.036 338.74V331.239H145.211Z" fill="#3F3D56"/>
<path d="M59.6556 138.757V280.775C59.6571 282.585 60.3767 284.32 61.6564 285.6C62.9361 286.88 64.6714 287.599 66.4812 287.601H276.937C278.747 287.599 280.482 286.88 281.762 285.6C283.042 284.32 283.761 282.585 283.763 280.775V138.757C283.758 136.949 283.038 135.216 281.758 133.938C280.479 132.661 278.745 131.942 276.937 131.939H66.4812C64.673 131.942 62.9394 132.661 61.66 133.938C60.3807 135.216 59.66 136.949 59.6556 138.757Z" fill="#242528"/>
<path d="M64.5929 140.525V279.023C64.5946 279.99 64.9794 280.917 65.6632 281.601C66.3469 282.285 67.2738 282.67 68.2408 282.671H275.185C276.152 282.67 277.079 282.285 277.763 281.601C278.447 280.917 278.831 279.99 278.833 279.023V140.525C278.833 139.556 278.449 138.628 277.765 137.942C277.081 137.257 276.153 136.871 275.185 136.869H68.2408C67.2726 136.871 66.3449 137.257 65.661 137.942C64.9771 138.628 64.593 139.556 64.5929 140.525Z" fill="white"/>
<path d="M102.998 339.703C103.209 339.967 103.477 340.18 103.781 340.326C104.086 340.472 104.42 340.546 104.758 340.545H227.876C228.213 340.544 228.545 340.469 228.849 340.324C229.153 340.179 229.421 339.968 229.633 339.706C229.845 339.445 229.996 339.139 230.075 338.812C230.155 338.485 230.16 338.144 230.091 337.815L228.18 328.736C228.1 328.366 227.93 328.022 227.683 327.734C227.437 327.447 227.123 327.226 226.769 327.091C226.513 326.99 226.24 326.939 225.965 326.939H106.661C106.386 326.939 106.113 326.99 105.857 327.091C105.504 327.226 105.189 327.447 104.943 327.734C104.696 328.022 104.526 328.366 104.447 328.736L102.536 337.815C102.468 338.144 102.474 338.484 102.554 338.811C102.634 339.138 102.786 339.442 102.998 339.703Z" fill="#242528"/>
<path d="M268.469 155.948H74.8321C74.6308 155.943 74.4393 155.86 74.2986 155.716C74.1578 155.572 74.079 155.379 74.079 155.178C74.079 154.976 74.1578 154.783 74.2986 154.639C74.4393 154.495 74.6308 154.412 74.8321 154.408H268.469C268.671 154.412 268.862 154.495 269.003 154.639C269.144 154.783 269.222 154.976 269.222 155.178C269.222 155.379 269.144 155.572 269.003 155.716C268.862 155.86 268.671 155.943 268.469 155.948Z" fill="#3F3D56"/>
<path d="M88.0133 150.476C90.5056 150.476 92.5261 148.411 92.5261 145.863C92.5261 143.315 90.5056 141.249 88.0133 141.249C85.5209 141.249 83.5005 143.315 83.5005 145.863C83.5005 148.411 85.5209 150.476 88.0133 150.476Z" fill="#3F3D56"/>
<path d="M103.603 150.476C106.095 150.476 108.116 148.411 108.116 145.863C108.116 143.315 106.095 141.249 103.603 141.249C101.111 141.249 99.0901 143.315 99.0901 145.863C99.0901 148.411 101.111 150.476 103.603 150.476Z" fill="#3F3D56"/>
<path d="M119.193 150.476C121.685 150.476 123.705 148.411 123.705 145.863C123.705 143.315 121.685 141.249 119.193 141.249C116.7 141.249 114.68 143.315 114.68 145.863C114.68 148.411 116.7 150.476 119.193 150.476Z" fill="#3F3D56"/>
<path d="M259.082 142.39H248.009C247.79 142.395 247.582 142.486 247.429 142.642C247.276 142.799 247.19 143.009 247.19 143.228C247.19 143.447 247.276 143.657 247.429 143.814C247.582 143.971 247.79 144.061 248.009 144.066H259.082C259.302 144.063 259.512 143.973 259.667 143.817C259.821 143.66 259.908 143.448 259.908 143.228C259.908 143.008 259.821 142.797 259.667 142.64C259.512 142.483 259.302 142.393 259.082 142.39Z" fill="#3F3D56"/>
<path d="M259.082 145.538H248.009C247.79 145.542 247.582 145.633 247.428 145.79C247.275 145.946 247.189 146.157 247.189 146.376C247.189 146.595 247.275 146.805 247.428 146.962C247.582 147.118 247.79 147.209 248.009 147.214H259.082C259.302 147.211 259.513 147.122 259.668 146.965C259.823 146.808 259.91 146.596 259.91 146.376C259.91 146.155 259.823 145.943 259.668 145.787C259.513 145.63 259.302 145.54 259.082 145.538Z" fill="#3F3D56"/>
<path d="M259.082 148.685H248.009C247.79 148.69 247.582 148.78 247.429 148.937C247.276 149.094 247.19 149.304 247.19 149.523C247.19 149.742 247.276 149.952 247.429 150.109C247.582 150.265 247.79 150.356 248.009 150.361H259.082C259.302 150.358 259.512 150.268 259.667 150.111C259.821 149.954 259.908 149.743 259.908 149.523C259.908 149.303 259.821 149.091 259.667 148.934C259.512 148.778 259.302 148.688 259.082 148.685Z" fill="#3F3D56"/>
<path d="M526.023 334.531C526.357 335.504 526.991 336.346 527.833 336.936C528.676 337.526 529.683 337.834 530.712 337.816L550.803 337.298C551.839 337.278 552.841 336.923 553.658 336.287C554.476 335.65 555.066 334.766 555.339 333.767L558.182 303.364C559.191 303.821 560.289 304.047 561.396 304.025C562.358 304.001 563.306 303.787 564.185 303.397C565.065 303.007 565.859 302.447 566.522 301.75C567.185 301.052 567.704 300.231 568.05 299.333C568.396 298.435 568.561 297.478 568.537 296.516C568.513 295.554 568.3 294.607 567.909 293.727C567.519 292.848 566.959 292.054 566.262 291.391C565.565 290.727 564.744 290.208 563.846 289.862C562.948 289.517 561.99 289.351 561.029 289.375C560.586 289.374 560.145 289.42 559.712 289.512C559.241 289.003 558.669 288.598 558.032 288.323C557.396 288.049 556.709 287.91 556.015 287.917L525.11 288.715C524.854 288.725 524.599 288.756 524.348 288.81C523.67 288.936 523.027 289.206 522.463 289.602C521.898 289.998 521.425 290.51 521.075 291.103C520.724 291.697 520.505 292.359 520.433 293.045C520.36 293.73 520.435 294.424 520.652 295.078L526.023 334.531ZM558.765 301.3L560.788 294.055C561.019 293.219 561.024 292.336 560.804 291.496C560.902 291.496 560.989 291.449 561.087 291.449C562.474 291.42 563.816 291.943 564.818 292.902C565.821 293.862 566.402 295.179 566.435 296.566C566.467 297.953 565.948 299.297 564.992 300.302C564.035 301.307 562.719 301.892 561.332 301.928C560.435 301.956 559.548 301.739 558.765 301.3Z" fill="#242528"/>
<path d="M524.348 288.81C525.006 292.575 532.409 295.221 541.31 294.761C549.495 294.384 556.188 291.51 557.414 288.104C556.96 287.97 556.488 287.907 556.015 287.917L525.11 288.715C524.854 288.725 524.599 288.756 524.348 288.81Z" fill="#3F3D56"/>
<path d="M542.941 317.825C542.982 317.814 543.021 317.797 543.056 317.774L547.419 314.918C547.472 314.884 547.515 314.837 547.545 314.782C547.575 314.726 547.591 314.664 547.591 314.601C547.591 314.538 547.575 314.477 547.545 314.421C547.515 314.366 547.472 314.319 547.419 314.284L542.884 311.314C542.843 311.286 542.796 311.267 542.747 311.258C542.698 311.248 542.648 311.249 542.599 311.259C542.55 311.269 542.503 311.288 542.462 311.317C542.421 311.345 542.386 311.38 542.358 311.422C542.331 311.464 542.312 311.511 542.303 311.56C542.293 311.609 542.294 311.659 542.304 311.708C542.315 311.757 542.334 311.803 542.363 311.844C542.391 311.885 542.427 311.921 542.469 311.948L546.519 314.601L542.641 317.14C542.566 317.189 542.51 317.263 542.485 317.349C542.459 317.435 542.465 317.527 542.501 317.61C542.537 317.692 542.601 317.758 542.682 317.798C542.762 317.837 542.854 317.847 542.941 317.825Z" fill="#F26716"/>
<path d="M536.05 318.143C536.123 318.124 536.189 318.084 536.24 318.028C536.29 317.972 536.322 317.901 536.333 317.827C536.343 317.752 536.331 317.676 536.297 317.608C536.264 317.54 536.211 317.484 536.146 317.446L532.124 315.14L536.011 312.253C536.051 312.223 536.085 312.186 536.11 312.143C536.136 312.101 536.153 312.053 536.16 312.004C536.167 311.955 536.165 311.905 536.153 311.856C536.141 311.808 536.119 311.763 536.089 311.723C536.06 311.683 536.022 311.649 535.98 311.624C535.937 311.598 535.89 311.581 535.84 311.574C535.791 311.567 535.741 311.569 535.693 311.581C535.644 311.593 535.599 311.615 535.559 311.645L531.207 314.877C531.156 314.915 531.116 314.964 531.089 315.021C531.063 315.078 531.051 315.141 531.054 315.204C531.058 315.267 531.077 315.328 531.111 315.381C531.144 315.435 531.19 315.479 531.244 315.51L535.768 318.104C535.854 318.153 535.955 318.167 536.05 318.143Z" fill="#F26716"/>
<path d="M542.508 320.328C542.544 320.318 542.579 320.304 542.611 320.284C542.654 320.258 542.691 320.224 542.721 320.184C542.75 320.143 542.771 320.098 542.783 320.049C542.795 320.001 542.797 319.951 542.789 319.902C542.782 319.852 542.764 319.805 542.739 319.763L536.553 309.594C536.501 309.508 536.417 309.446 536.319 309.423C536.221 309.399 536.118 309.415 536.032 309.468C535.947 309.52 535.885 309.604 535.861 309.702C535.837 309.799 535.853 309.903 535.905 309.988L542.091 320.157C542.133 320.227 542.196 320.28 542.271 320.311C542.346 320.342 542.429 320.347 542.508 320.328Z" fill="#F26716"/>
<path d="M194.787 197.811H161.273C159.905 197.811 158.797 198.92 158.797 200.287V203.561C158.797 204.928 159.905 206.037 161.273 206.037H194.787C196.154 206.037 197.263 204.928 197.263 203.561V200.287C197.263 198.92 196.154 197.811 194.787 197.811Z" fill="#551009"/>
<path d="M214.322 214.262H141.737C140.37 214.262 139.262 215.37 139.262 216.738V220.012C139.262 221.379 140.37 222.487 141.737 222.487H214.322C215.689 222.487 216.798 221.379 216.798 220.012V216.738C216.798 215.37 215.689 214.262 214.322 214.262Z" fill="#551009"/>
<path d="M214.322 230.713H141.737C140.37 230.713 139.262 231.821 139.262 233.188V236.462C139.262 237.83 140.37 238.938 141.737 238.938H214.322C215.689 238.938 216.798 237.83 216.798 236.462V233.188C216.798 231.821 215.689 230.713 214.322 230.713Z" fill="#551009"/>
<path d="M220.475 285.8L220.64 286.319L220.648 286.336L225.597 301.381L231.29 318.719L242 351.301L242.104 356.362V356.379L242.9 397.094L240.694 402.613L243.177 411.663C243.177 411.663 242.035 397.984 235.91 405.839C232.44 410.303 228.383 414.871 225.052 419.154C229.905 421.118 234.837 422.894 239.846 424.483C240.928 424.829 242.018 425.158 243.108 425.487C243.341 425.556 243.575 425.625 243.809 425.694C260.413 430.605 277.58 433.364 294.887 433.905C295.787 433.931 296.67 433.948 297.526 433.965C297.829 433.974 298.123 433.983 298.417 433.983C299.386 433.991 300.347 434 301.315 434C303.271 434 305.217 433.971 307.155 433.914C321.499 433.509 335.759 431.581 349.695 428.16C349.6 422.407 349.34 415.685 348.968 408.504C348.795 404.983 344.911 401.167 344.677 397.482C344.513 394.713 347.999 392.109 347.818 389.297C346.641 371.986 345.17 378.631 344.08 366.372C343.968 365.169 343.864 364.019 343.769 362.92C343.068 355.047 342.583 350.124 342.583 350.124L347.238 320.787L354.549 274.726L353.986 273.8L353.355 273.489L314.795 254.403L312.701 249.039C312.091 247.494 311.033 246.166 309.662 245.227C308.291 244.288 306.671 243.781 305.01 243.77L279.609 243.667C278.29 243.661 276.99 243.969 275.815 244.566C274.64 245.164 273.624 246.033 272.852 247.101L265.974 256.627L220.475 285.8Z" fill="#551009"/>
<path d="M247.858 344.051L242.104 356.362L238.176 364.771L231.42 400.148L228.037 403.738L225.138 391.028L194.804 397.763C193.809 392.235 194.538 397.95 193.924 391.885C194.097 391.712 194.278 391.539 194.46 391.366C194.944 390.916 195.351 390.492 195.342 390.086C194.996 369.166 196.035 333.565 204.703 311.997C206.061 308.475 207.851 305.136 210.033 302.056C210.206 301.822 210.37 301.589 210.535 301.355C214.532 295.758 217.058 290.247 220.64 286.328V286.319C220.662 286.301 220.682 286.281 220.7 286.258C220.713 286.252 220.725 286.243 220.735 286.232L245.34 273.186L246.395 302.843L247.148 324.161L247.858 344.051Z" fill="#551009"/>
<path d="M336.579 347.547L343.765 362.924L346.274 368.279L353.029 403.652L356.4 407.234L359.305 394.526L360.67 394.246L385.287 389.148L392.462 411.935C394.079 409.241 394.716 406.071 394.265 402.961C393.814 399.851 392.304 396.992 389.988 394.867C389.498 394.424 389.09 393.992 389.102 393.584C389.51 368.979 388.005 324.051 374.413 305.559C370.097 299.691 367.507 293.846 363.739 289.763C363.727 289.751 363.727 289.74 363.715 289.74L354.545 274.725L353.985 273.803L353.355 273.488L336.579 347.547Z" fill="#551009"/>
<path d="M293.043 236.438C311.706 236.438 326.836 221.308 326.836 202.645C326.836 183.981 311.706 168.852 293.043 168.852C274.38 168.852 259.25 183.981 259.25 202.645C259.25 221.308 274.38 236.438 293.043 236.438Z" fill="#FFB6B6"/>
<path d="M338.718 179.041C338.456 178.761 338.14 178.537 337.79 178.382C337.439 178.226 337.061 178.144 336.678 178.138L337.186 176.727C337.352 176.283 337.397 175.803 337.316 175.335C337.235 174.868 337.031 174.431 336.726 174.068C336.42 173.705 336.024 173.43 335.577 173.271C335.13 173.112 334.649 173.075 334.183 173.163L332.332 173.519L332.507 172.283C332.574 171.823 332.52 171.353 332.35 170.92C332.18 170.487 331.9 170.105 331.538 169.813C331.176 169.52 330.745 169.327 330.286 169.253C329.826 169.178 329.356 169.224 328.92 169.386C328.523 169.542 328.096 169.608 327.671 169.577C327.246 169.547 326.833 169.422 326.462 169.212C326.09 169.008 325.767 168.725 325.516 168.383C325.264 168.041 325.09 167.648 325.006 167.232L324.362 164.123L324.293 163.956C321.154 158.723 315.117 154.916 307.73 153.52C301.155 152.269 294.412 152.906 287.913 153.505C285.334 153.748 282.422 154.021 279.995 155.507C277.932 156.782 276.188 159.33 276.545 161.901C270.136 159.936 263.265 163.857 259.86 168.802C255.825 174.687 255.165 182.059 255.059 187.823C254.771 201.459 257.585 212.615 263.401 220.988C263.826 221.594 263.932 222.861 264.774 223.286L264.6 223.005C265.54 223.475 266.496 224.234 266.139 225.045C265.115 227.381 271.918 232.546 276.711 234.252C285.456 237.369 297.082 237.104 305.257 235.981L305.546 234.047C308.496 233.645 310.574 232.879 311.158 231.681C312.189 230.801 313.069 230.013 313.835 229.284L313.843 229.277C313.858 229.262 313.888 229.239 313.903 229.224C317.597 225.682 318.454 223.665 318.84 220.593C319.212 217.582 318.552 214.526 317.877 211.773C332.09 213.972 312.28 196.635 325.522 193.283C325.674 193.237 325.828 193.199 325.985 193.17C326.371 193.079 326.758 192.988 327.13 192.881C328.921 192.395 330.636 191.663 332.226 190.705C335.927 188.452 337.148 185.464 339.059 182.097C339.335 181.617 339.451 181.063 339.389 180.513C339.328 179.963 339.093 179.447 338.718 179.041Z" fill="#313131"/>
<path d="M412.563 349.953C412.556 351.281 412.541 353.139 412.48 355.437C412.472 355.755 412.465 356.081 412.457 356.415C412.359 360.639 412.26 364.181 412.101 368.117C412.093 368.39 412.086 368.656 412.07 368.929C411.858 374.419 411.524 380.813 410.948 390.937C409.879 409.639 408.013 393.508 406.14 400.068C406.049 400.395 405.95 400.781 405.859 401.236C405.576 402.887 405.097 404.499 404.433 406.037C403.44 406.629 402.416 407.197 401.407 407.766C398.533 409.366 395.613 410.906 392.671 412.37C391.017 413.189 389.356 413.993 387.688 414.766C387.423 414.888 387.165 415.009 386.907 415.123C378.363 419.075 369.557 422.435 360.552 425.179C358.793 425.71 357.041 426.226 355.266 426.703C353.416 427.219 351.565 427.705 349.692 428.16C335.757 431.581 321.497 433.51 307.154 433.916C305.22 433.976 303.271 433.999 301.314 433.999C300.343 433.999 299.388 433.992 298.417 433.984C298.121 433.984 297.825 433.976 297.529 433.969C296.672 433.946 295.785 433.931 294.89 433.908C277.583 433.368 260.416 430.608 243.812 425.695L243.107 425.49C242.015 425.156 240.93 424.83 239.846 424.481C234.84 422.896 229.908 421.122 225.049 419.157C221.341 417.663 217.675 416.061 214.052 414.349C214.019 414.34 213.988 414.325 213.961 414.304C213.203 413.955 212.437 413.591 211.679 413.219C211.58 413.166 211.474 413.113 211.368 413.06C208.539 411.68 205.74 410.234 202.972 408.722C200.644 403.375 197.368 402.351 195.335 397.649C194.744 396.252 194.316 394.791 194.061 393.296C194.061 393.281 194.053 393.266 194.053 393.243C194.266 396.064 193.151 388.237 194.046 393.213C194.038 393.122 194.031 393.023 194.023 392.909C194 392.636 193.97 392.302 193.925 391.885C191.323 366.487 191.49 337.44 190.36 313.505C190.284 311.958 190.206 310.476 190.125 309.06C190.102 308.59 190.072 308.128 190.042 307.673C190.095 307.536 190.155 307.392 190.224 307.255C190.238 307.216 190.256 307.178 190.277 307.142C190.299 307.095 190.324 307.049 190.352 307.005C190.368 306.983 190.39 306.952 190.406 306.929C190.417 306.903 190.429 306.878 190.443 306.854C190.512 306.747 190.588 306.634 190.671 306.527C190.709 306.482 190.739 306.444 190.777 306.406C190.803 306.367 190.834 306.332 190.868 306.3C190.891 306.263 190.919 306.23 190.952 306.201C190.982 306.171 191.012 306.133 191.05 306.095C191.066 306.071 191.087 306.051 191.111 306.035C191.171 305.966 191.237 305.902 191.308 305.845C191.579 305.596 191.868 305.368 192.173 305.162C192.279 305.094 192.393 305.026 192.499 304.95C193.263 304.493 194.068 304.107 194.903 303.797C195.191 303.691 195.479 303.592 195.79 303.486C195.904 303.456 196.01 303.418 196.124 303.38C196.291 303.327 196.458 303.274 196.632 303.236C197.497 302.978 198.429 302.758 199.438 302.553C199.559 302.531 199.688 302.508 199.817 302.478C199.999 302.44 200.189 302.409 200.378 302.379C200.636 302.334 200.902 302.288 201.167 302.243C203.42 301.886 205.975 301.621 208.797 301.446C209.062 301.431 209.328 301.416 209.593 301.401C209.904 301.386 210.215 301.37 210.533 301.355C210.799 301.34 211.072 301.332 211.345 301.325C211.61 301.31 211.883 301.302 212.164 301.295C212.93 301.272 213.719 301.249 214.523 301.234C216.813 301.188 219.225 301.204 221.758 301.257C222.933 301.287 224.132 301.317 225.36 301.37C225.444 301.37 225.519 301.378 225.595 301.378C226.665 301.416 227.742 301.461 228.849 301.522C229.622 301.56 230.404 301.598 231.185 301.643C231.92 301.689 232.664 301.734 233.414 301.788C233.998 301.818 234.582 301.863 235.174 301.901C235.674 301.939 236.175 301.977 236.675 302.007L237.358 302.053C237.73 302.083 238.101 302.106 238.48 302.144C239.315 302.212 240.149 302.28 240.998 302.349C241.84 302.425 242.697 302.5 243.554 302.576C244.411 302.652 245.276 302.735 246.14 302.819C246.231 302.827 246.315 302.834 246.398 302.842C247.187 302.925 247.976 303.001 248.772 303.084C248.954 303.1 249.144 303.115 249.326 303.137C250.085 303.214 250.859 303.303 251.625 303.384C251.86 303.41 252.094 303.434 252.33 303.46C252.93 303.526 253.522 303.582 254.126 303.653C254.922 303.744 255.734 303.828 256.523 303.934C257.137 304.002 257.751 304.07 258.366 304.146C259.329 304.26 260.307 304.381 261.285 304.51C261.657 304.556 262.029 304.601 262.4 304.654C265.191 305.003 268.012 305.39 270.879 305.792C275.225 306.406 279.639 307.074 284.083 307.794C288.535 308.514 293.012 309.275 297.514 310.077C298.652 310.282 299.789 310.486 300.935 310.699C301.45 310.797 301.966 310.896 302.482 310.994C303.361 311.154 304.241 311.321 305.121 311.487C306.001 311.654 306.88 311.821 307.76 311.995C308.807 312.2 309.861 312.405 310.908 312.61C317.801 313.975 324.657 315.431 331.346 316.955C332.446 317.206 333.546 317.464 334.638 317.714C336.822 318.222 338.986 318.738 341.13 319.261C341.721 319.397 342.305 319.542 342.889 319.686C344.345 320.05 345.801 320.414 347.235 320.785L347.485 320.854C348.539 321.111 349.571 321.377 350.602 321.65C353.037 322.287 355.431 322.932 357.784 323.584C359.346 324.016 360.891 324.453 362.418 324.896C364.701 325.556 366.938 326.223 369.115 326.898C369.653 327.065 370.192 327.232 370.722 327.391C372.315 327.884 373.885 328.385 375.409 328.885C376.623 329.279 377.806 329.681 378.974 330.083C380.142 330.485 381.287 330.887 382.409 331.289C383.13 331.547 383.843 331.82 384.556 332.078C385.58 332.457 386.588 332.836 387.574 333.216C387.877 333.329 388.173 333.451 388.469 333.564C388.659 333.648 388.841 333.716 389.023 333.792C389.379 333.936 389.743 334.072 390.092 334.217C390.448 334.353 390.797 334.497 391.146 334.649C391.487 334.785 391.836 334.929 392.17 335.074C392.511 335.21 392.845 335.354 393.179 335.506C393.459 335.62 393.732 335.741 393.998 335.862C394.536 336.097 395.075 336.333 395.598 336.575C395.856 336.697 396.114 336.81 396.372 336.932L396.963 337.205C397.047 337.25 397.13 337.288 397.213 337.326C397.403 337.417 397.6 337.516 397.79 337.607C398.23 337.811 398.662 338.031 399.087 338.236C399.655 338.524 400.209 338.813 400.74 339.093C401.278 339.381 401.802 339.67 402.302 339.95C402.386 339.996 402.462 340.041 402.545 340.087C402.659 340.147 402.772 340.216 402.886 340.276C403.273 340.496 403.645 340.724 404.016 340.944C404.744 341.391 405.434 341.831 406.079 342.271C406.223 342.369 406.36 342.468 406.504 342.559C406.982 342.9 407.437 343.234 407.861 343.575C407.861 343.583 407.861 343.583 407.869 343.583C408.013 343.689 408.15 343.803 408.286 343.909C408.4 344.015 408.521 344.106 408.635 344.212C409.029 344.554 409.393 344.88 409.727 345.213C409.839 345.316 409.945 345.425 410.046 345.539C410.09 345.576 410.13 345.617 410.167 345.661C410.319 345.812 410.455 345.964 410.584 346.116C410.604 346.137 410.622 346.16 410.637 346.184C410.819 346.396 410.986 346.609 411.145 346.821C411.221 346.927 411.304 347.034 411.373 347.14C411.464 347.269 411.555 347.405 411.631 347.534C411.699 347.64 411.759 347.754 411.82 347.86C411.981 348.134 412.118 348.42 412.23 348.717C412.315 348.918 412.383 349.126 412.434 349.339C412.492 349.541 412.535 349.746 412.563 349.953Z" fill="#191A1E"/>
<path opacity="0.2" d="M412.564 349.953C412.556 351.281 412.541 353.139 412.48 355.437C412.473 355.755 412.457 356.081 412.45 356.415C412.374 359.638 412.26 363.62 412.101 368.117C412.093 368.39 412.086 368.656 412.071 368.929C411.858 374.419 411.525 380.813 410.948 390.937C409.879 409.639 408.013 393.508 406.14 400.068C400.937 396.868 395.234 393.516 389.137 390.073C388.037 389.451 386.927 388.826 385.807 388.2C373.612 381.397 359.991 374.268 345.771 367.207C345.21 366.926 344.641 366.646 344.08 366.373C311.507 350.272 275.953 334.611 247.149 324.16C241.59 322.143 236.281 320.323 231.291 318.723C220.779 315.363 211.694 313.012 204.701 311.996C197.421 310.934 192.393 311.313 190.36 313.505C190.284 311.958 190.206 310.476 190.125 309.061C190.095 308.59 190.064 308.128 190.034 307.673C190.081 307.548 190.142 307.429 190.2 307.308C190.209 307.291 190.215 307.273 190.224 307.256C190.238 307.216 190.256 307.178 190.277 307.142C190.299 307.095 190.324 307.049 190.352 307.005C190.377 306.951 190.408 306.901 190.443 306.854C190.512 306.747 190.588 306.634 190.671 306.527C190.732 306.448 190.798 306.372 190.868 306.3C190.891 306.263 190.92 306.23 190.952 306.201C190.982 306.171 191.012 306.133 191.05 306.095C191.066 306.071 191.087 306.051 191.111 306.035C191.171 305.966 191.237 305.902 191.308 305.845C191.579 305.596 191.868 305.368 192.173 305.162C192.279 305.094 192.393 305.026 192.499 304.95C193.263 304.493 194.068 304.107 194.903 303.797C195.191 303.691 195.479 303.592 195.79 303.486C195.904 303.456 196.01 303.418 196.124 303.38C196.291 303.327 196.458 303.274 196.632 303.236C197.497 302.978 198.429 302.758 199.438 302.553C199.741 302.493 200.06 302.432 200.379 302.379C200.636 302.334 200.902 302.288 201.167 302.243C203.42 301.886 205.976 301.621 208.797 301.446C209.062 301.431 209.328 301.416 209.593 301.401C209.904 301.385 210.215 301.37 210.533 301.355C210.799 301.34 211.072 301.332 211.345 301.325C211.61 301.31 211.883 301.302 212.164 301.295C212.93 301.272 213.719 301.249 214.523 301.234C216.813 301.196 219.225 301.211 221.758 301.264C222.933 301.287 224.132 301.325 225.36 301.378C225.436 301.378 225.519 301.386 225.595 301.386C226.665 301.416 227.749 301.469 228.849 301.522C229.622 301.56 230.404 301.598 231.185 301.643C231.92 301.689 232.664 301.734 233.414 301.787C233.998 301.818 234.582 301.863 235.174 301.901C235.674 301.939 236.175 301.977 236.675 302.007C237.275 302.053 237.874 302.098 238.48 302.144C239.315 302.212 240.149 302.28 240.998 302.349C241.84 302.425 242.697 302.5 243.554 302.576C244.411 302.652 245.276 302.735 246.14 302.819C246.231 302.826 246.315 302.834 246.398 302.842C247.187 302.925 247.976 303.001 248.772 303.084C253.186 303.532 257.729 304.055 262.4 304.654C265.191 305.011 268.018 305.392 270.879 305.799C275.225 306.414 279.639 307.081 284.083 307.794C288.535 308.514 293.012 309.275 297.514 310.077C298.652 310.282 299.789 310.486 300.935 310.699C302.33 310.956 303.726 311.219 305.121 311.487C306.001 311.654 306.881 311.821 307.76 311.996C308.807 312.2 309.861 312.405 310.908 312.61C317.801 313.975 324.657 315.431 331.347 316.955C332.446 317.206 333.546 317.464 334.638 317.714C336.822 318.222 338.986 318.738 341.13 319.261C341.721 319.405 342.305 319.549 342.889 319.693C344.353 320.057 345.802 320.421 347.235 320.785V320.793C347.318 320.808 347.402 320.831 347.485 320.854C348.532 321.119 349.571 321.385 350.602 321.658C353.037 322.295 355.431 322.937 357.784 323.584C359.347 324.024 360.894 324.456 362.418 324.896C364.701 325.563 366.938 326.231 369.115 326.898C369.653 327.065 370.192 327.232 370.723 327.391C372.315 327.892 373.878 328.39 375.41 328.885C376.623 329.279 377.806 329.681 378.974 330.083C380.142 330.485 381.287 330.887 382.41 331.289C383.138 331.547 383.85 331.812 384.556 332.07C385.587 332.45 386.588 332.829 387.574 333.216C387.878 333.329 388.173 333.451 388.469 333.564C389.023 333.777 389.561 333.997 390.092 334.217C390.449 334.353 390.797 334.497 391.146 334.649C391.488 334.785 391.836 334.93 392.17 335.074C392.511 335.21 392.845 335.354 393.179 335.506C393.459 335.62 393.732 335.741 393.998 335.862C394.536 336.097 395.075 336.333 395.598 336.575C395.856 336.697 396.114 336.81 396.372 336.932L396.963 337.205C397.047 337.25 397.13 337.288 397.213 337.326C397.858 337.629 398.48 337.933 399.087 338.236C399.656 338.524 400.209 338.813 400.74 339.093C401.37 339.427 401.969 339.753 402.545 340.087C402.659 340.147 402.773 340.216 402.886 340.276C403.273 340.496 403.645 340.724 404.016 340.944C404.744 341.391 405.435 341.831 406.079 342.271C406.716 342.711 407.308 343.143 407.861 343.575C407.861 343.583 407.861 343.583 407.869 343.583C408.134 343.795 408.392 344.008 408.635 344.212C409.029 344.554 409.393 344.88 409.727 345.213C409.839 345.316 409.945 345.425 410.046 345.539C410.09 345.576 410.13 345.617 410.167 345.661C410.326 345.835 410.485 346.01 410.637 346.184C410.819 346.396 410.986 346.609 411.145 346.821C411.221 346.927 411.305 347.034 411.373 347.14C411.464 347.269 411.555 347.405 411.631 347.534C411.699 347.64 411.76 347.754 411.82 347.86C411.981 348.134 412.118 348.42 412.23 348.717C412.313 348.919 412.381 349.127 412.435 349.339C412.492 349.541 412.535 349.746 412.564 349.953Z" fill="#525252"/>
</g>
<defs>
<clipPath id="clip0_3975_5">
<rect width="596.724" height="434" fill="white"/>
</clipPath>
</defs>
</svg>
